<svg xmlns="http://www.w3.org/2000/svg" viewBox="0 0 320 320">
  <rect width="320" height="320" fill="#fff"/>
  <rect x="18" y="18" width="284" height="284" fill="#f8fafc" stroke="#102a43" stroke-width="4"/>
  <rect x="42" y="42" width="72" height="72" fill="#102a43"/>
  <rect x="58" y="58" width="40" height="40" fill="#fff"/>
  <rect x="68" y="68" width="20" height="20" fill="#102a43"/>
  <rect x="206" y="42" width="72" height="72" fill="#102a43"/>
  <rect x="222" y="58" width="40" height="40" fill="#fff"/>
  <rect x="232" y="68" width="20" height="20" fill="#102a43"/>
  <rect x="42" y="206" width="72" height="72" fill="#102a43"/>
  <rect x="58" y="222" width="40" height="40" fill="#fff"/>
  <rect x="68" y="232" width="20" height="20" fill="#102a43"/>
  <rect x="140" y="44" width="18" height="18" fill="#102a43"/>
  <rect x="164" y="68" width="18" height="42" fill="#102a43"/>
  <rect x="134" y="132" width="42" height="18" fill="#102a43"/>
  <rect x="194" y="132" width="18" height="18" fill="#102a43"/>
  <rect x="236" y="138" width="42" height="18" fill="#102a43"/>
  <rect x="134" y="174" width="18" height="42" fill="#102a43"/>
  <rect x="164" y="194" width="54" height="18" fill="#102a43"/>
  <rect x="236" y="188" width="18" height="42" fill="#102a43"/>
  <rect x="134" y="248" width="66" height="18" fill="#102a43"/>
  <rect x="218" y="254" width="60" height="18" fill="#102a43"/>
  <text x="160" y="160" text-anchor="middle" font-family="Arial, sans-serif" font-size="16" font-weight="700" fill="#486581">QR BANK</text>
</svg>
